<svg width="256" height="256" viewBox="0 0 256 256" fill="none" xmlns="http://www.w3.org/2000/svg">
  <rect width="256" height="256" rx="64" fill="#07152A"/>
  <circle cx="128" cy="128" r="96" fill="url(#bgGlow)"/>
  <circle cx="128" cy="128" r="82" stroke="#26DEFF" stroke-width="12" stroke-linecap="round" stroke-dasharray="18 16"/>
  <path d="M128 46C157.289 46 184.599 60.6705 202.758 85.1022L128 128V46Z" fill="#F4C866"/>
  <path d="M202.758 85.1021C215.699 102.496 222.891 123.505 223.328 145.181L128 128L202.758 85.1021Z" fill="#0F2C4A"/>
  <path d="M223.328 145.181C222.735 178.736 203.855 209.282 174.331 224.463L128 128L223.328 145.181Z" fill="#3FF0B0"/>
  <path d="M174.331 224.463C156.321 233.727 135.762 237.125 115.708 234.166L128 128L174.331 224.463Z" fill="#164260"/>
  <path d="M115.708 234.166C81.1767 229.071 51.7664 205.366 38.9969 173.65L128 128L115.708 234.166Z" fill="#FF6D84"/>
  <path d="M38.9969 173.65C29.6359 150.386 29.6575 124.404 39.0572 101.156L128 128L38.9969 173.65Z" fill="#26DEFF"/>
  <path d="M39.0572 101.156C51.9093 69.8815 81.2084 46.2872 115.639 41.2755L128 128L39.0572 101.156Z" fill="#0B2034"/>
  <circle cx="128" cy="128" r="28" fill="#07152A" stroke="#E9F9FF" stroke-width="8"/>
  <circle cx="128" cy="128" r="8" fill="#F4C866"/>
  <path d="M171 31L213 44L181 74L171 31Z" fill="#FF6D84"/>
  <path d="M174.486 40.1302L203.529 49.0425L181.398 69.773L174.486 40.1302Z" fill="#E9F9FF" fill-opacity="0.85"/>
  <circle cx="128" cy="128" r="100" stroke="#E9F9FF" stroke-opacity="0.22" stroke-width="2"/>
  <defs>
    <radialGradient id="bgGlow" cx="0" cy="0" r="1" gradientUnits="userSpaceOnUse" gradientTransform="translate(128 128) rotate(90) scale(96)">
      <stop stop-color="#0F2C4A"/>
      <stop offset="1" stop-color="#07152A"/>
    </radialGradient>
  </defs>
</svg>
